<svg xmlns="http://www.w3.org/2000/svg">
  <symbol id="star-filled" viewBox="0 0 576 512">
    <path d="M309.5-18.9c-4.1-8-12.4-13.1-21.4-13.1s-17.3 5.1-21.4 13.1L193.1 125.3 33.2 150.7c-8.9 1.4-16.3 7.7-19.1 16.3s-.5 18 5.8 24.4l114.4 114.5-25.2 159.9c-1.4 8.9 2.3 17.9 9.6 23.2s16.9 6.1 25 2L288.1 417.6 432.4 491c8 4.1 17.7 3.3 25-2s11-14.2 9.6-23.2L441.7 305.9 556.1 191.4c6.4-6.4 8.6-15.8 5.8-24.4s-10.1-14.9-19.1-16.3L383 125.3 309.5-18.9z"/>
  </symbol>
  <symbol id="star-outline" viewBox="0 0 640 640">
    <path d="M320.1 32C329.1 32 337.4 37.1 341.5 45.1L415 189.3L574.9 214.7C583.8 216.1 591.2 222.4 594 231C596.8 239.6 594.5 249 588.2 255.4L473.7 369.9L499 529.8C500.4 538.7 496.7 547.7 489.4 553C482.1 558.3 472.4 559.1 464.4 555L320.1 481.6L175.8 555C167.8 559.1 158.1 558.3 150.8 553C143.5 547.7 139.8 538.8 141.2 529.8L166.4 369.9L52 255.4C45.6 249 43.4 239.6 46.2 231C49 222.4 56.3 216.1 65.3 214.7L225.2 189.3L298.8 45.1C302.9 37.1 311.2 32 320.2 32zM320.1 108.8L262.3 222C258.8 228.8 252.3 233.6 244.7 234.8L119.2 254.8L209 344.7C214.4 350.1 216.9 357.8 215.7 365.4L195.9 490.9L309.2 433.3C316 429.8 324.1 429.8 331 433.3L444.3 490.9L424.5 365.4C423.3 357.8 425.8 350.1 431.2 344.7L521 254.8L395.5 234.8C387.9 233.6 381.4 228.8 377.9 222L320.1 108.8z"/>
  </symbol>
</svg>